<svg width="166" height="38" viewBox="0 0 166 38" fill="none" xmlns="http://www.w3.org/2000/svg">
<path d="M0 1.76855C1.41907 2.02348 2.64753 2.21467 3.68536 2.34214C4.72319 2.43774 5.58099 2.5174 6.25876 2.58113C7.04242 2.64486 7.69901 2.6608 8.22852 2.62893C8.7792 2.59706 9.5311 2.5174 10.4842 2.38994C11.2891 2.29434 12.3481 2.16688 13.6612 2.00755C14.9744 1.81635 16.6159 1.56143 18.5856 1.24277C18.6068 1.97568 18.6174 2.69266 18.6174 3.39371C18.6386 4.06289 18.6598 4.65241 18.681 5.16226C18.7021 5.76771 18.7127 6.32537 18.7127 6.83522C18.7127 7.37694 18.6915 8.06205 18.6492 8.89057C18.6068 9.59161 18.5327 10.4839 18.4268 11.5673C18.3421 12.6189 18.2044 13.8776 18.0138 15.3434C17.7173 13.6226 17.4313 12.2365 17.156 11.1849C16.8806 10.1015 16.6265 9.24109 16.3935 8.60377C16.1393 7.87086 15.8852 7.31321 15.631 6.93082C15.3557 6.64402 15.0274 6.40503 14.6461 6.21384C14.3072 6.05451 13.873 5.92704 13.3435 5.83145C12.8352 5.73585 12.2316 5.75178 11.5326 5.87925C11.4267 10.0855 11.3526 13.4952 11.3102 16.1082C11.2679 18.7212 11.2361 20.7606 11.2149 22.2264C11.1937 23.979 11.1832 25.2377 11.1832 26.0025C11.2043 27.086 11.3208 28.1535 11.5326 29.205C11.7021 30.0973 11.9774 31.0214 12.3587 31.9774C12.7399 32.9333 13.2906 33.7778 14.0107 34.5107H10.1347C9.77467 34.5107 9.32989 34.5426 8.80038 34.6063C8.3556 34.67 7.78373 34.7338 7.08478 34.7975C6.40702 34.8612 5.61276 34.9727 4.70201 35.1321C5.01971 34.3036 5.27388 33.5547 5.4645 32.8855C5.65512 32.2164 5.80338 31.6428 5.90928 31.1648C6.03636 30.5912 6.13167 30.0813 6.19522 29.6352C6.2164 28.9979 6.26935 27.7073 6.35407 25.7635C6.37525 24.9669 6.39643 23.979 6.41761 22.8C6.45997 21.621 6.50233 20.2189 6.54469 18.5937C6.60823 16.9686 6.66118 15.1044 6.70354 13.0013C6.76708 10.8662 6.83062 8.46038 6.89416 5.78365C6.51292 5.62432 6.15285 5.64025 5.81397 5.83145C5.47509 5.99078 5.17856 6.1979 4.9244 6.45283C4.62788 6.77149 4.34195 7.15388 4.0666 7.6C3.79126 8.14172 3.48415 8.84277 3.14526 9.70314C2.84874 10.4361 2.50986 11.408 2.12861 12.6189C1.74737 13.7979 1.31317 15.2637 0.826029 17.0164C0.720128 15.1681 0.645997 13.6545 0.603636 12.4755C0.561276 11.2646 0.529506 10.3245 0.508325 9.65535C0.487145 8.8587 0.476555 8.26918 0.476555 7.88679C0.476555 7.53627 0.455375 7.07421 0.413014 6.50063C0.370654 6.02264 0.317703 5.40126 0.254163 4.63648C0.190622 3.83983 0.105901 2.88386 0 1.76855Z" fill="white"/>
<path d="M17.2831 13.766C17.6855 13.7979 18.0455 13.8138 18.3633 13.8138C18.7021 13.782 18.9881 13.7501 19.2211 13.7182C19.4964 13.6864 19.74 13.6545 19.9518 13.6226C20.2695 13.5589 20.5978 13.4792 20.9366 13.3836C21.2332 13.3199 21.5403 13.2403 21.858 13.1447C22.1969 13.0172 22.5252 12.8738 22.8429 12.7145C22.7158 13.1925 22.6099 13.6067 22.5252 13.9572C22.4404 14.3078 22.3769 14.6105 22.3345 14.8654C22.271 15.1522 22.2392 15.3912 22.2392 15.5824C22.2181 15.8055 22.2075 16.0763 22.2075 16.395C22.1863 16.9367 22.1863 17.813 22.2075 19.0239C23.3088 17.5899 24.2302 16.4746 24.9715 15.678C25.734 14.8813 26.3376 14.26 26.7824 13.8138C27.3119 13.304 27.7249 12.9694 28.0214 12.8101C28.8051 12.6189 29.4935 12.8897 30.0865 13.6226C30.3407 13.9413 30.5842 14.3715 30.8172 14.9132C31.0502 15.4231 31.2514 16.1082 31.4209 16.9686C31.5903 17.8289 31.7174 18.8646 31.8021 20.0755C31.8868 21.2545 31.8974 22.6725 31.8339 24.3296C31.3891 24.3933 30.9867 24.457 30.6266 24.5208C30.2877 24.5845 30.0018 24.6323 29.7688 24.6642C29.4935 24.7279 29.2393 24.7597 29.0063 24.7597L28.1485 24.9031C27.852 24.9669 27.4813 25.0306 27.0366 25.0943C26.6129 25.1262 26.094 25.1899 25.4798 25.2855C26.3694 24.2021 26.9412 23.2621 27.1954 22.4654C27.4707 21.6369 27.5872 20.9518 27.5449 20.4101C27.5025 19.8046 27.3119 19.2788 26.973 18.8327C26.5706 18.4822 26.1364 18.3547 25.6704 18.4503C25.268 18.514 24.802 18.7849 24.2725 19.2629C23.743 19.7409 23.1818 20.6331 22.5887 21.9396C22.6311 23.979 22.6734 25.6679 22.7158 27.0063C22.7793 28.3447 22.8323 29.4281 22.8746 30.2566C22.9382 31.2126 22.9911 31.9614 23.0335 32.5031C23.097 32.9811 23.2241 33.491 23.4147 34.0327C23.563 34.4788 23.7748 34.9727 24.0501 35.5145C24.3255 36.0562 24.6855 36.5979 25.1303 37.1396C24.1984 37.0759 23.4359 37.0759 22.8429 37.1396C22.4828 37.1715 22.1651 37.2034 21.8898 37.2352C21.5932 37.299 21.2755 37.3627 20.9366 37.4264C20.6401 37.4901 20.2907 37.5539 19.8882 37.6176C19.507 37.7132 19.0834 37.8088 18.6174 37.9044C18.7869 37.5539 18.9245 37.1396 19.0304 36.6616C19.1363 36.2155 19.2211 35.7853 19.2846 35.3711C19.3693 34.8931 19.4329 34.3992 19.4752 33.8893C19.4964 33.4432 19.507 32.774 19.507 31.8818C19.5282 30.9895 19.5176 29.9857 19.4752 28.8704C19.454 27.7233 19.4223 26.5442 19.3799 25.3333C19.3375 24.0906 19.2846 22.9275 19.2211 21.844C19.1575 20.7606 19.0834 19.8205 18.9987 19.0239C18.9351 18.1954 18.861 17.6218 18.7763 17.3031C18.6704 16.9208 18.5433 16.5384 18.395 16.156C18.2679 15.8055 18.1091 15.439 17.9185 15.0566C17.7278 14.6423 17.516 14.2122 17.2831 13.766Z" fill="white"/>
<path d="M35.551 17.3031C35.6569 17.1119 35.7204 16.7614 35.7416 16.2516C35.784 15.7099 35.8687 15.1044 35.9958 14.4352C36.1441 13.766 36.3876 13.065 36.7265 12.3321C37.0654 11.5992 37.6161 10.914 38.3786 10.2767C39.1199 9.63941 39.84 9.25702 40.5389 9.12956C41.2379 9.0021 41.9051 9.0499 42.5405 9.27296C43.1759 9.49602 43.7689 9.84654 44.3196 10.3245C44.8915 10.8025 45.4104 11.3283 45.8764 11.9019C46.1941 12.2843 46.4482 12.8419 46.6389 13.5748C46.8295 14.2759 46.9777 15.0725 47.0836 15.9648C47.1895 16.857 47.2637 17.7971 47.306 18.7849C47.3696 19.7409 47.4119 20.6809 47.4331 21.605C47.4543 22.4973 47.4649 23.3258 47.4649 24.0906C47.4861 24.8235 47.5284 25.4289 47.592 25.9069C47.6767 26.608 47.8249 27.2134 48.0367 27.7233C48.2485 28.2013 48.4815 28.6155 48.7357 28.966C48.9899 29.2847 49.244 29.5396 49.4982 29.7308C49.7523 29.922 49.9747 30.0654 50.1654 30.161C50.2924 30.2566 50.4089 30.3203 50.5148 30.3522C50.7266 30.4797 50.8749 30.4797 50.9596 30.3522C50.8325 30.7983 50.716 31.1807 50.6101 31.4994C50.5042 31.818 50.4195 32.0889 50.356 32.312C50.2713 32.5669 50.1971 32.774 50.1336 32.9333C50.07 33.1245 49.9959 33.2998 49.9112 33.4591C49.8477 33.6185 49.7629 33.7937 49.657 33.9849C49.5511 34.1761 49.4452 34.3832 49.3393 34.6063C49.064 34.447 48.7992 34.2558 48.5451 34.0327C48.3121 33.8096 48.1003 33.6025 47.9097 33.4113C47.6767 33.1883 47.4649 32.9652 47.2743 32.7421C47.0836 32.5191 46.9036 32.2641 46.7342 31.9774C46.5859 31.7224 46.427 31.4516 46.2576 31.1648C46.1093 30.878 45.9823 30.5593 45.8764 30.2088C45.7493 30.6231 45.4422 31.2126 44.955 31.9774C44.4891 32.7421 43.8748 33.4432 43.1123 34.0805C42.3499 34.686 41.4603 35.1161 40.4436 35.3711C39.4482 35.626 38.3468 35.4507 37.1395 34.8453C36.61 34.5904 36.1123 34.2239 35.6463 33.7459C35.1804 33.2361 34.7779 32.6306 34.439 31.9296C34.1213 31.2285 33.8884 30.4319 33.7401 29.5396C33.613 28.6155 33.6236 27.5958 33.7719 26.4805C33.9201 25.3652 34.1849 24.4252 34.5661 23.6604C34.9474 22.8956 35.4027 22.2742 35.9322 21.7962C36.4618 21.3182 37.0548 20.9518 37.7114 20.6969C38.368 20.4419 39.0457 20.2667 39.7447 20.1711C40.2954 20.1392 40.8461 20.187 41.3967 20.3145C41.8627 20.4419 42.3499 20.6809 42.8582 21.0314C43.3665 21.3501 43.8007 21.844 44.1608 22.5132C44.1396 20.8243 44.0972 19.486 44.0337 18.4981C43.9913 17.4784 43.949 16.6977 43.9066 16.156C43.8219 15.5187 43.7477 15.0725 43.6842 14.8176C43.5783 14.5945 43.4618 14.3396 43.3347 14.0528C43.2288 13.766 43.0912 13.5111 42.9217 13.288C42.7523 13.0331 42.5405 12.826 42.2863 12.6667C42.0322 12.5073 41.7356 12.4436 41.3967 12.4755C41.0367 12.5073 40.7507 12.6507 40.5389 12.9057C40.3271 13.1606 40.1577 13.4633 40.0306 13.8138C39.9247 14.1325 39.8612 14.483 39.84 14.8654C39.8188 15.2478 39.8294 15.5824 39.8718 15.8692C39.9141 16.0604 39.9777 16.2675 40.0624 16.4906C40.1471 16.6818 40.2636 16.8889 40.4119 17.1119C40.5601 17.335 40.7613 17.5262 41.0155 17.6855C40.5284 17.7811 40.0942 17.8608 39.7129 17.9245C39.3317 17.9564 39.0034 18.0042 38.728 18.0679C38.4103 18.1317 38.135 18.1795 37.902 18.2113C37.669 18.2432 37.3937 18.3069 37.076 18.4025C36.8006 18.4662 36.4618 18.5459 36.0593 18.6415C35.6569 18.7371 35.1909 18.8646 34.6614 19.0239C34.7885 18.8008 34.905 18.5937 35.0109 18.4025C35.1168 18.1795 35.2121 17.9883 35.2968 17.8289C35.3816 17.6377 35.4663 17.4625 35.551 17.3031ZM40.3166 22.9912C39.9353 23.0231 39.5541 23.1665 39.1728 23.4214C38.7916 23.6444 38.4527 23.979 38.1562 24.4252C37.8596 24.8394 37.6055 25.3333 37.3937 25.9069C37.2031 26.4486 37.1077 27.0541 37.1077 27.7233C37.1077 28.3925 37.2136 28.982 37.4255 29.4918C37.6584 29.9698 37.955 30.3681 38.315 30.6868C38.6963 31.0055 39.0987 31.1966 39.5223 31.2604C39.9671 31.3241 40.4013 31.2604 40.8249 31.0692C41.2273 30.8461 41.6085 30.4956 41.9686 30.0176C42.3287 29.5078 42.6358 28.966 42.8899 28.3925C43.1441 27.787 43.3241 27.1975 43.43 26.6239C43.5359 26.0184 43.5465 25.5245 43.4618 25.1421C43.2924 24.3136 42.9111 23.74 42.3181 23.4214C41.725 23.0709 41.0579 22.9275 40.3166 22.9912Z" fill="white"/>
<path d="M48.5451 10.3245C48.9051 10.4201 49.2758 10.4998 49.657 10.5635C50.0171 10.5954 50.3454 10.6273 50.6419 10.6591C50.9808 10.691 51.3091 10.7069 51.6268 10.7069C51.9445 10.7069 52.3046 10.691 52.707 10.6591C53.0459 10.6273 53.4483 10.5795 53.9143 10.5157C54.4014 10.452 54.9309 10.3564 55.5028 10.2289C55.1639 10.5157 54.8991 10.8184 54.7085 11.1371C54.5179 11.4558 54.3696 11.7426 54.2637 11.9975C54.1367 12.3161 54.0519 12.6029 54.0096 12.8579C53.9672 13.1128 53.9778 13.6386 54.0413 14.4352C54.1049 15.2319 54.1896 16.156 54.2955 17.2075C54.4226 18.2591 54.5603 19.3585 54.7085 20.5057C54.8568 21.6528 55.005 22.7044 55.1533 23.6604C55.3227 24.6164 55.471 25.413 55.5981 26.0503C55.7463 26.6876 55.8628 26.9904 55.9476 26.9585C56.0323 26.9585 56.1594 26.6398 56.3288 26.0025C56.5194 25.3652 56.7312 24.5845 56.9642 23.6604C57.1972 22.7044 57.4408 21.6688 57.6949 20.5535C57.9491 19.4063 58.1715 18.3388 58.3621 17.3509C58.5527 16.3631 58.701 15.5346 58.8069 14.8654C58.934 14.1644 58.9869 13.7501 58.9657 13.6226C58.9022 13.4952 58.8281 13.3199 58.7433 13.0969C58.5951 12.7463 58.2668 12.1409 57.7585 11.2805C58.3727 11.3442 58.9022 11.408 59.347 11.4717C59.7918 11.5036 60.1518 11.5514 60.4272 11.6151C60.7449 11.6788 60.999 11.7266 61.1897 11.7585C61.3803 11.7904 61.6556 11.7904 62.0157 11.7585C62.3122 11.7585 62.704 11.7426 63.1912 11.7107C63.6995 11.647 64.3243 11.5514 65.0656 11.4239C64.515 11.9019 64.0596 12.3321 63.6995 12.7145C63.3606 13.065 63.0959 13.3677 62.9053 13.6226C62.6723 13.9413 62.5028 14.2122 62.3969 14.4352C62.2487 14.8495 61.9839 15.8373 61.6027 17.3987C61.4332 18.0679 61.2214 18.8964 60.9673 19.8843C60.7343 20.8721 60.4484 22.0671 60.1095 23.4692C59.7918 24.8394 59.4105 26.4486 58.9657 28.2969C58.521 30.1451 58.0232 32.2641 57.4725 34.6541L54.3908 35.1321C53.9884 33.1245 53.6601 31.4516 53.4059 30.1132C53.1729 28.743 52.9823 27.6436 52.8341 26.8151C52.6646 25.8591 52.5375 25.1103 52.4528 24.5686C52.3469 23.9631 52.2198 23.0868 52.0716 21.9396C51.9233 20.7606 51.7751 19.5656 51.6268 18.3547C51.4785 17.1438 51.3303 16.0604 51.182 15.1044C51.0337 14.1166 50.9173 13.5111 50.8325 13.288C50.7478 13.1287 50.5996 12.9057 50.3877 12.6189C50.2183 12.3639 49.9853 12.0612 49.6888 11.7107C49.3923 11.3283 49.011 10.8662 48.5451 10.3245Z" fill="white"/>
<path d="M71.7056 28.966C72.2987 28.966 72.8494 28.8704 73.3577 28.6792C73.7813 28.5199 74.1837 28.265 74.565 27.9145C74.9674 27.5321 75.2321 26.9744 75.3592 26.2415C75.7828 26.369 76.1429 26.4805 76.4394 26.5761C76.7359 26.6398 76.9901 26.7036 77.2019 26.7673C77.4349 26.8629 77.6361 26.9266 77.8055 26.9585C77.975 27.0222 78.1762 27.086 78.4092 27.1497C78.621 27.2134 78.8751 27.2931 79.1717 27.3887C79.4894 27.4524 79.86 27.548 80.2836 27.6755C79.9659 27.6117 79.6376 27.6595 79.2988 27.8189C78.981 27.9782 78.6739 28.1535 78.3774 28.3447C78.0385 28.5677 77.7208 28.8386 77.4243 29.1572C77.2337 29.3484 77.0113 29.6352 76.7571 30.0176C76.5241 30.4 76.1853 30.7665 75.7405 31.117C75.2957 31.4675 74.7026 31.7702 73.9613 32.0252C73.2412 32.2482 72.3093 32.3279 71.1656 32.2641C69.7888 32.2004 68.6345 31.834 67.7026 31.1648C66.7707 30.4637 66.0188 29.6193 65.4469 28.6314C64.875 27.6117 64.462 26.5124 64.2078 25.3333C63.9537 24.1543 63.816 23.0549 63.7948 22.0352C63.7737 21.0155 63.9749 19.948 64.3985 18.8327C64.8221 17.7174 65.4151 16.6977 66.1776 15.7736C66.9613 14.8495 67.9038 14.1006 69.0052 13.527C70.1065 12.9216 71.3138 12.6189 72.627 12.6189C73.3895 12.6189 74.0884 12.7623 74.7238 13.0491C75.3804 13.304 75.9735 13.6545 76.503 14.1006C77.0536 14.5468 77.5302 15.0566 77.9326 15.6302C78.3351 16.1719 78.6739 16.7296 78.9493 17.3031C79.2246 17.9086 79.4576 18.5459 79.6482 19.2151C79.8177 19.7887 79.9553 20.4419 80.0612 21.1748C80.1671 21.9078 80.1989 22.6566 80.1566 23.4214C78.5469 23.4851 77.2443 23.5329 76.2488 23.5648C75.2745 23.5966 74.512 23.6126 73.9613 23.6126H72.5317H71.4515C71.0702 23.6126 70.5725 23.6285 69.9583 23.6604C69.344 23.6922 68.5921 23.74 67.7026 23.8038C67.8085 25.0784 68.0732 26.0662 68.4968 26.7673C68.9416 27.4365 69.4076 27.9463 69.8947 28.2969C70.4454 28.6792 71.0491 28.9023 71.7056 28.966ZM68.8463 20.3623C69.5241 20.426 70.0854 20.4738 70.5301 20.5057C70.9961 20.5375 71.3773 20.5694 71.6739 20.6013C71.9916 20.6331 72.2457 20.6491 72.4364 20.6491H73.2306C73.7601 20.6491 74.745 20.6013 76.1853 20.5057C76.1217 19.1036 75.9205 18.0361 75.5816 17.3031C75.2639 16.5702 74.925 16.0285 74.565 15.678C74.1414 15.2956 73.6754 15.0725 73.1671 15.0088C71.7904 15.0407 70.7631 15.4709 70.0854 16.2994C69.4288 17.1279 69.0158 18.4822 68.8463 20.3623Z" fill="white"/>
<path d="M82.1581 38C82.3699 37.522 82.5393 37.0759 82.6664 36.6616C82.7935 36.2474 82.8994 35.8969 82.9841 35.6101C83.0688 35.2595 83.1324 34.9409 83.1747 34.6541C83.1959 34.4629 83.2065 33.9052 83.2065 32.9811C83.2065 32.057 83.1853 30.8939 83.143 29.4918C83.1218 28.0897 83.09 26.5124 83.0477 24.7597C83.0265 23.0071 82.9841 21.2226 82.9206 19.4063C82.8782 17.5899 82.8253 15.8214 82.7617 14.1006C82.7194 12.3799 82.677 10.8344 82.6346 9.46415C82.5923 8.06205 82.5499 6.91488 82.5076 6.02264C82.4652 5.1304 82.4334 4.62054 82.4122 4.49308C82.3699 4.30189 82.2958 4.11069 82.1898 3.9195C81.9781 3.53711 81.618 3.17065 81.1097 2.82013C82.1898 2.40587 83.0159 2.07128 83.5877 1.81635C83.9266 1.68889 84.2232 1.56143 84.4773 1.43396C84.7103 1.3065 84.9433 1.17904 85.1763 1.05157C85.3669 0.924109 85.5787 0.780713 85.8117 0.621384C86.0447 0.430189 86.2565 0.223061 86.4471 0C86.3412 0.924109 86.2565 1.81635 86.1929 2.67673C86.1294 3.53711 86.0764 4.33375 86.0341 5.06667C85.9917 5.89518 85.9705 6.69182 85.9705 7.4566C85.8646 9.01803 85.8011 10.7229 85.7799 12.5711C85.7799 14.3874 85.7905 16.2356 85.8117 18.1157C85.8328 19.9958 85.8752 21.8281 85.9388 23.6126C86.0023 25.3971 86.0658 27.0222 86.1294 28.4881C86.2141 29.922 86.2882 31.1488 86.3518 32.1686C86.4365 33.1564 86.5 33.7937 86.5424 34.0805C86.6271 34.5585 86.7118 35.0205 86.7966 35.4667C86.8813 35.8491 86.9766 36.2474 87.0825 36.6616C87.1884 37.1078 87.3155 37.4583 87.4637 37.7132H84.382C84.1067 37.7132 83.8419 37.7291 83.5877 37.761C83.3548 37.7929 83.1112 37.8247 82.857 37.8566C82.6029 37.8885 82.3699 37.9363 82.1581 38Z" fill="white"/>
<path d="M102.618 9.36855C102.428 10.0696 102.258 10.7069 102.11 11.2805C101.983 11.8541 101.866 12.3639 101.76 12.8101C101.654 13.3199 101.559 13.766 101.474 14.1484C101.39 14.5945 101.294 15.1044 101.189 15.678C101.083 16.1878 100.945 16.8252 100.775 17.5899C100.627 18.3229 100.447 19.1992 100.235 20.2189C100.066 18.6893 99.7589 17.4784 99.3141 16.5862C98.8693 15.6621 98.4139 14.9451 97.9479 14.4352C97.3973 13.8616 96.8042 13.4474 96.1688 13.1925C95.0251 12.9057 94.199 12.9375 93.6907 13.288C93.1824 13.6386 92.8435 14.0847 92.6741 14.6264C92.5893 14.8495 92.494 15.1363 92.3881 15.4868C92.3034 15.8055 92.2293 16.14 92.1657 16.4906C92.1234 16.8411 92.1128 17.1916 92.134 17.5421C92.1552 17.8927 92.2505 18.1795 92.4199 18.4025C92.5258 18.5618 92.8011 18.7849 93.2459 19.0717C93.6907 19.3266 94.2202 19.6294 94.8344 19.9799C95.4699 20.2985 96.137 20.6491 96.836 21.0314C97.5561 21.4138 98.2339 21.7962 98.8693 22.1786C99.5047 22.561 100.055 22.9434 100.521 23.3258C100.987 23.7082 101.294 24.0587 101.443 24.3774C101.57 24.696 101.707 25.1262 101.856 25.6679C102.025 26.1778 102.142 26.7514 102.205 27.3887C102.29 27.9941 102.311 28.6314 102.269 29.3006C102.248 29.9379 102.131 30.5753 101.919 31.2126C101.707 31.8499 101.369 32.4394 100.903 32.9811C100.458 33.5229 99.8542 33.969 99.0917 34.3195C98.2021 34.7338 97.3443 34.8453 96.5183 34.6541C95.6922 34.4629 94.9298 34.1761 94.2308 33.7937C93.553 33.4113 92.96 33.0449 92.4517 32.6943C91.9433 32.312 91.5833 32.1526 91.3715 32.2164C91.1385 32.2801 90.8737 32.4553 90.5772 32.7421C90.2807 33.0289 89.9948 33.3317 89.7194 33.6503C89.4653 33.9371 89.2429 34.208 89.0522 34.4629C88.8616 34.686 88.7663 34.7656 88.7663 34.7019C88.7663 34.6382 88.7981 34.447 88.8616 34.1283C88.9463 33.8096 89.0311 33.4273 89.1158 32.9811C89.2217 32.5031 89.317 31.9933 89.4017 31.4516C89.5076 30.878 89.5817 30.3363 89.6241 29.8264C89.6665 29.4122 89.7194 28.9023 89.783 28.2969C89.8253 27.7551 89.8783 27.1019 89.9418 26.3371C90.0265 25.5405 90.1218 24.5845 90.2277 23.4692C90.3336 24.2977 90.4819 25.0147 90.6725 25.6201C90.8843 26.2256 91.0855 26.7514 91.2762 27.1975C91.5091 27.7073 91.7315 28.1375 91.9433 28.4881C92.261 28.9342 92.6317 29.3484 93.0553 29.7308C93.5001 30.1132 93.9449 30.4478 94.3897 30.7346C94.8344 30.9895 95.258 31.1488 95.6605 31.2126C96.0629 31.2763 96.4018 31.2126 96.6771 31.0214C96.9525 30.8302 97.1854 30.4797 97.3761 29.9698C97.5879 29.46 97.7361 28.9023 97.8209 28.2969C97.9056 27.6914 97.9373 27.1178 97.9162 26.5761C97.895 26.0025 97.7997 25.5405 97.6302 25.1899C97.5032 24.9669 97.2066 24.6801 96.7407 24.3296C96.2959 23.979 95.7558 23.5966 95.1204 23.1824C94.5061 22.7681 93.8496 22.3379 93.1506 21.8918C92.4729 21.4457 91.8269 20.9996 91.2126 20.5535C90.6196 20.0755 90.1218 19.6294 89.7194 19.2151C89.3382 18.769 89.1264 18.3706 89.084 18.0201C89.0417 17.5103 89.0099 16.9526 88.9887 16.3472C88.9675 15.7099 88.9887 15.0885 89.0522 14.483C89.137 13.8457 89.2852 13.2403 89.497 12.6667C89.73 12.0931 90.0689 11.6151 90.5137 11.2327C90.8102 10.9778 91.202 10.7866 91.6892 10.6591C92.1763 10.5317 92.7164 10.4679 93.3095 10.4679C93.9025 10.4361 94.5167 10.4679 95.1522 10.5635C95.7876 10.6273 96.3912 10.7229 96.9631 10.8503C97.5561 10.9459 98.0856 11.0734 98.5516 11.2327C99.0387 11.392 99.4094 11.5354 99.6635 11.6629C99.9601 11.8222 100.278 11.8382 100.617 11.7107C100.913 11.6151 101.231 11.408 101.57 11.0893C101.909 10.7706 102.258 10.1971 102.618 9.36855Z" fill="white"/>
<path d="M112.276 15.2478C112.827 15.2478 113.399 15.4071 113.992 15.7258C114.585 16.0126 115.157 16.395 115.708 16.873C116.258 17.3191 116.756 17.813 117.201 18.3547C117.667 18.8646 118.048 19.3585 118.344 19.8365C118.874 20.6969 119.234 21.86 119.425 23.3258C119.636 24.7597 119.679 26.2415 119.552 27.7711C119.425 29.2688 119.128 30.6868 118.662 32.0252C118.196 33.3635 117.55 34.3514 116.724 34.9887C116.131 35.4348 115.549 35.7853 114.977 36.0403C114.405 36.2952 113.854 36.4864 113.325 36.6138C112.795 36.7413 112.298 36.805 111.832 36.805C111.366 36.805 110.963 36.7891 110.624 36.7572C109.989 36.6935 109.322 36.3589 108.623 35.7535C107.945 35.148 107.299 34.3992 106.685 33.5069C106.092 32.6147 105.583 31.6428 105.16 30.5912C104.736 29.5078 104.482 28.4881 104.397 27.5321C104.27 26.2256 104.249 24.8553 104.334 23.4214C104.418 21.9874 104.726 20.665 105.255 19.4541C105.806 18.2432 106.632 17.2394 107.733 16.4428C108.856 15.6461 110.37 15.2478 112.276 15.2478ZM111.228 33.7937C111.461 33.8574 111.779 33.7778 112.181 33.5547C112.583 33.2998 112.975 32.9015 113.357 32.3597C113.759 31.818 114.108 31.1329 114.405 30.3044C114.723 29.444 114.913 28.4084 114.977 27.1975C115.04 26.0184 115.04 24.935 114.977 23.9472C114.934 22.9593 114.839 22.099 114.691 21.366C114.543 20.6013 114.373 19.9799 114.183 19.5019C113.992 19.0239 113.791 18.6893 113.579 18.4981C113.219 18.2113 112.785 17.9883 112.276 17.8289C111.768 17.6377 111.334 17.6696 110.974 17.9245C110.804 18.052 110.593 18.3229 110.338 18.7371C110.084 19.1514 109.83 19.6771 109.576 20.3145C109.322 20.9199 109.089 21.621 108.877 22.4176C108.686 23.2143 108.549 24.0428 108.464 24.9031C108.379 25.7635 108.358 26.6876 108.4 27.6755C108.464 28.6633 108.602 29.6034 108.813 30.4956C109.025 31.356 109.322 32.1048 109.703 32.7421C110.105 33.3476 110.614 33.6981 111.228 33.7937Z" fill="white"/>
<path d="M120.918 14.005C121.405 13.9413 121.818 13.8776 122.157 13.8138C122.517 13.7501 122.814 13.6864 123.047 13.6226C123.322 13.5589 123.555 13.4952 123.745 13.4314C123.936 13.3996 124.148 13.3358 124.381 13.2403C124.593 13.1765 124.826 13.0969 125.08 13.0013C125.355 12.8738 125.652 12.7304 125.969 12.5711L125.779 18.6415C126.245 17.5262 126.785 16.6818 127.399 16.1082C128.013 15.5027 128.596 15.0566 129.146 14.7698C129.803 14.4193 130.46 14.2122 131.116 14.1484C131.794 14.1803 132.419 14.3396 132.991 14.6264C133.478 14.8813 133.965 15.2797 134.452 15.8214C134.96 16.3631 135.352 17.1597 135.628 18.2113C136.348 17.096 137.057 16.2356 137.756 15.6302C138.476 14.9929 139.112 14.5149 139.662 14.1962C140.319 13.8457 140.933 13.6386 141.505 13.5748C142.268 13.543 142.967 13.7342 143.602 14.1484C144.258 14.5627 144.83 15.0885 145.318 15.7258C145.805 16.3312 146.196 16.9845 146.493 17.6855C146.79 18.3547 146.959 18.9442 147.001 19.4541C147.065 20.1551 147.033 21.0633 146.906 22.1786C146.779 23.2621 146.631 24.3774 146.461 25.5245C146.292 26.6398 146.133 27.6755 145.985 28.6314C145.858 29.5556 145.805 30.2088 145.826 30.5912C145.889 30.9099 146.038 31.2922 146.271 31.7384C146.482 32.1208 146.79 32.5987 147.192 33.1723C147.616 33.714 148.219 34.3514 149.003 35.0843C148.325 35.0524 147.721 35.0205 147.192 34.9887C146.684 34.9568 146.249 34.909 145.889 34.8453C145.466 34.7816 145.095 34.7338 144.777 34.7019C144.523 34.7019 144.216 34.67 143.856 34.6063C143.56 34.5744 143.168 34.5266 142.681 34.4629C142.215 34.3992 141.675 34.3354 141.06 34.2717C141.293 34.1761 141.484 34.0008 141.632 33.7459C141.78 33.4591 141.907 33.1883 142.013 32.9333C142.119 32.6147 142.204 32.2641 142.268 31.8818C142.31 31.5631 142.352 31.0532 142.395 30.3522C142.437 29.6512 142.469 28.8545 142.49 27.9623C142.532 27.07 142.553 26.13 142.553 25.1421C142.575 24.1543 142.575 23.2143 142.553 22.322C142.532 21.4298 142.49 20.6172 142.426 19.8843C142.363 19.1514 142.278 18.5937 142.172 18.2113C142.088 17.9245 141.939 17.7015 141.727 17.5421C141.516 17.3509 141.272 17.2394 140.997 17.2075C140.721 17.1438 140.446 17.1597 140.171 17.2553C139.895 17.3191 139.652 17.4465 139.44 17.6377C139.249 17.8608 138.995 18.1635 138.678 18.5459C138.402 18.8964 138.042 19.3744 137.597 19.9799C137.153 20.5853 136.591 21.3501 135.913 22.2742C135.85 24.2818 135.797 25.9069 135.755 27.1497C135.733 28.3606 135.712 29.2847 135.691 29.922C135.67 30.6868 135.659 31.2126 135.659 31.4994C135.638 31.7543 135.649 31.9933 135.691 32.2164C135.733 32.6943 135.861 33.1405 136.072 33.5547C135.818 33.4591 135.543 33.3954 135.246 33.3635C134.971 33.3317 134.717 33.2998 134.484 33.2679C134.208 33.2361 133.933 33.2201 133.658 33.2201C133.425 33.2201 133.171 33.2361 132.895 33.2679C132.662 33.2998 132.376 33.3476 132.038 33.4113C131.699 33.4432 131.328 33.491 130.926 33.5547C131.095 33.3954 131.233 33.2042 131.339 32.9811C131.444 32.7581 131.529 32.5509 131.593 32.3597C131.677 32.1367 131.741 31.9296 131.783 31.7384C131.805 31.5472 131.847 31.0851 131.91 30.3522C131.974 29.5874 132.016 28.6952 132.038 27.6755C132.059 26.6558 132.059 25.5883 132.038 24.473C132.016 23.3258 131.942 22.2901 131.815 21.366C131.688 20.4101 131.487 19.6294 131.211 19.0239C130.957 18.4184 130.618 18.1476 130.195 18.2113C129.687 18.2751 129.168 18.4662 128.638 18.7849C128.193 19.0398 127.717 19.4222 127.208 19.9321C126.7 20.4419 126.224 21.127 125.779 21.9874C125.694 24.3774 125.641 26.2734 125.62 27.6755C125.62 29.0776 125.63 30.1451 125.652 30.878C125.673 31.7384 125.694 32.3279 125.715 32.6465C125.736 32.8696 125.789 33.0927 125.874 33.3157C125.938 33.5069 126.012 33.73 126.096 33.9849C126.202 34.2398 126.319 34.4788 126.446 34.7019L121.394 34.3195C121.564 34.192 121.712 34.0327 121.839 33.8415C121.966 33.6185 122.072 33.3954 122.157 33.1723C122.242 32.9174 122.326 32.6625 122.411 32.4075C122.475 32.1845 122.528 31.6587 122.57 30.8302C122.633 30.0017 122.686 29.0298 122.729 27.9145C122.771 26.7673 122.803 25.5723 122.824 24.3296C122.866 23.0549 122.888 21.8759 122.888 20.7925C122.909 19.6771 122.919 18.7371 122.919 17.9723C122.919 17.1757 122.909 16.6977 122.888 16.5384C122.824 16.2197 122.708 15.8851 122.538 15.5346C122.39 15.2797 122.189 15.0088 121.935 14.722C121.68 14.4034 121.341 14.1644 120.918 14.005Z" fill="white"/>
<path d="M157.422 28.966C158.015 28.966 158.566 28.8704 159.074 28.6792C159.498 28.5199 159.9 28.265 160.281 27.9145C160.684 27.5321 160.949 26.9744 161.076 26.2415C161.499 26.369 161.859 26.4805 162.156 26.5761C162.452 26.6398 162.706 26.7036 162.918 26.7673C163.151 26.8629 163.352 26.9266 163.522 26.9585C163.691 27.0222 163.893 27.086 164.126 27.1497C164.337 27.2134 164.592 27.2931 164.888 27.3887C165.206 27.4524 165.576 27.548 166 27.6755C165.682 27.6117 165.354 27.6595 165.015 27.8189C164.697 27.9782 164.39 28.1535 164.094 28.3447C163.755 28.5677 163.437 28.8386 163.141 29.1572C162.95 29.3484 162.728 29.6352 162.473 30.0176C162.241 30.4 161.902 30.7665 161.457 31.117C161.012 31.4675 160.419 31.7702 159.678 32.0252C158.958 32.2482 158.026 32.3279 156.882 32.2641C155.505 32.2004 154.351 31.834 153.419 31.1648C152.487 30.4637 151.735 29.6193 151.163 28.6314C150.591 27.6117 150.178 26.5124 149.924 25.3333C149.67 24.1543 149.532 23.0549 149.511 22.0352C149.49 21.0155 149.691 19.948 150.115 18.8327C150.538 17.7174 151.131 16.6977 151.894 15.7736C152.678 14.8495 153.62 14.1006 154.722 13.527C155.823 12.9216 157.03 12.6189 158.343 12.6189C159.106 12.6189 159.805 12.7623 160.44 13.0491C161.097 13.304 161.69 13.6545 162.219 14.1006C162.77 14.5468 163.247 15.0566 163.649 15.6302C164.051 16.1719 164.39 16.7296 164.666 17.3031C164.941 17.9086 165.174 18.5459 165.365 19.2151C165.534 19.7887 165.672 20.4419 165.778 21.1748C165.883 21.9078 165.915 22.6566 165.873 23.4214C164.263 23.4851 162.961 23.5329 161.965 23.5648C160.991 23.5966 160.228 23.6126 159.678 23.6126H158.248H157.168C156.787 23.6126 156.289 23.6285 155.675 23.6604C155.06 23.6922 154.309 23.74 153.419 23.8038C153.525 25.0784 153.79 26.0662 154.213 26.7673C154.658 27.4365 155.124 27.9463 155.611 28.2969C156.162 28.6792 156.765 28.9023 157.422 28.966ZM154.563 20.3623C155.24 20.426 155.802 20.4738 156.247 20.5057C156.712 20.5375 157.094 20.5694 157.39 20.6013C157.708 20.6331 157.962 20.6491 158.153 20.6491H158.947C159.476 20.6491 160.461 20.6013 161.902 20.5057C161.838 19.1036 161.637 18.0361 161.298 17.3031C160.98 16.5702 160.641 16.0285 160.281 15.678C159.858 15.2956 159.392 15.0725 158.883 15.0088C157.507 15.0407 156.479 15.4709 155.802 16.2994C155.145 17.1279 154.732 18.4822 154.563 20.3623Z" fill="white"/>
</svg>
